# xmcd
#
# Track frame offsets:
#	150
#	11492
#	37687
#	57770
#	80550
#	107873
#	140915
#	157765
#	172582
#	205368
#
# Disc length: 3470 seconds
#
# Revision: 2
# Processed by: cddbd v1.5.1PL2 Copyright (c) Steve Scherf et al.
# Submitted via: EasyCDDAExtractor 9.0.0.1
#
DISCID=740d8c0a
DTITLE=Blue Öyster Cult - 700 Screaming Toadbusters Toad's Place New Haven 21-
DTITLE=04-06 Disc 1
DYEAR=2006
DGENRE=Hard Rock
TTITLE0=Intro
TTITLE1=The Red And The Black
TTITLE2=Harvester Of Eyes
TTITLE3=Burnin' For You
TTITLE4=Extra Terrestrial Intelligence
TTITLE5=I Love The Night
TTITLE6=Transmaniacon MC
TTITLE7=ME 262
TTITLE8=The Golden Age Of Leather
TTITLE9=The Last Days Of May
EXTD=
EXTT0=
EXTT1=
EXTT2=
EXTT3=
EXTT4=
EXTT5=
EXTT6=
EXTT7=
EXTT8=
EXTT9=
PLAYORDER=
